<svg xmlns="http://www.w3.org/2000/svg" width="860" height="380" viewBox="0 0 860 380">
<rect x="0" y="0" width="100%" height="100%" fill="#0b1d2d"/>
<line x1="70" y1="310" x2="830" y2="310" stroke="#6f8aa0"/>
<line x1="70" y1="44" x2="70" y2="310" stroke="#6f8aa0"/>
<text x="70" y="24" fill="#eef6fb" font-size="17">Third Finding: Category Drift Across Snapshots</text>
<text x="70" y="42" fill="#b6c9d7" font-size="12">Top drifting category shares from first to last deterministic snapshot</text>
<polyline fill="none" stroke="#f4a259" stroke-width="3" points="70.0,160.8 139.1,151.3 208.2,139.8 277.3,129.8 346.4,117.6 415.5,110.9 484.5,94.8 553.6,88.3 622.7,75.1 691.8,66.4 760.9,53.7 830.0,44.0"/>
<polyline fill="none" stroke="#6ed39e" stroke-width="3" points="70.0,154.5 139.1,160.7 208.2,168.8 277.3,175.1 346.4,179.0 415.5,186.3 484.5,193.7 553.6,200.9 622.7,205.3 691.8,210.6 760.9,219.6 830.0,225.5"/>
<polyline fill="none" stroke="#5ba4ff" stroke-width="3" points="70.0,269.1 139.1,272.6 208.2,273.2 277.3,277.0 346.4,281.7 415.5,281.7 484.5,286.2 553.6,286.2 622.7,291.2 691.8,294.8 760.9,295.7 830.0,299.7"/>
<rect x="620" y="20" width="12" height="12" fill="#f4a259" rx="2"/>
<text x="638" y="30" fill="#d6e5ef" font-size="11">Inflation share of total gap</text>
<rect x="620" y="38" width="12" height="12" fill="#6ed39e" rx="2"/>
<text x="638" y="48" fill="#d6e5ef" font-size="11">Unemployment share of total gap</text>
<rect x="620" y="56" width="12" height="12" fill="#5ba4ff" rx="2"/>
<text x="638" y="66" fill="#d6e5ef" font-size="11">Fed share of total gap</text>
<text x="70.0" y="334" text-anchor="middle" fill="#b6c9d7" font-size="11">2026-03-20 close</text>
<text x="208.2" y="334" text-anchor="middle" fill="#b6c9d7" font-size="11">2026-03-22 close</text>
<text x="346.4" y="334" text-anchor="middle" fill="#b6c9d7" font-size="11">2026-03-24 close</text>
<text x="484.5" y="334" text-anchor="middle" fill="#b6c9d7" font-size="11">2026-03-26 close</text>
<text x="622.7" y="334" text-anchor="middle" fill="#b6c9d7" font-size="11">2026-03-28 close</text>
<text x="760.9" y="334" text-anchor="middle" fill="#b6c9d7" font-size="11">2026-03-30 close</text>
<text x="830.0" y="334" text-anchor="middle" fill="#b6c9d7" font-size="11">2026-03-31 close</text>
</svg>