<svg xmlns="http://www.w3.org/2000/svg" width="860" height="380" viewBox="0 0 860 380">
<rect x="0" y="0" width="100%" height="100%" fill="#0b1d2d"/>
<line x1="70" y1="310" x2="830" y2="310" stroke="#6f8aa0"/>
<line x1="70" y1="44" x2="70" y2="310" stroke="#6f8aa0"/>
<text x="70" y="24" fill="#eef6fb" font-size="17">Flagship Persistence Across Deterministic Snapshots</text>
<text x="70" y="42" fill="#b6c9d7" font-size="12">Orange = top-share, Green = HHI</text>
<polyline fill="none" stroke="#f4a259" stroke-width="3" points="70.0,259.1 139.1,252.9 208.2,230.4 277.3,210.9 346.4,187.2 415.5,174.1 484.5,142.9 553.6,130.2 622.7,104.5 691.8,87.6 760.9,62.9 830.0,44.0"/>
<polyline fill="none" stroke="#6ed39e" stroke-width="3" points="70.0,310.0 139.1,306.6 208.2,299.8 277.3,292.6 346.4,276.8 415.5,273.1 484.5,249.8 553.6,243.9 622.7,219.5 691.8,204.7 760.9,181.3 830.0,161.5"/>
<rect x="620" y="20" width="12" height="12" fill="#f4a259" rx="2"/>
<text x="638" y="30" fill="#d6e5ef" font-size="11">Top share of total gap</text>
<rect x="620" y="38" width="12" height="12" fill="#6ed39e" rx="2"/>
<text x="638" y="48" fill="#d6e5ef" font-size="11">Herfindahl index (HHI)</text>
<text x="70.0" y="334" text-anchor="middle" fill="#b6c9d7" font-size="11">2026-03-20 close</text>
<text x="139.1" y="334" text-anchor="middle" fill="#b6c9d7" font-size="11">2026-03-21 close</text>
<text x="208.2" y="334" text-anchor="middle" fill="#b6c9d7" font-size="11">2026-03-22 close</text>
<text x="277.3" y="334" text-anchor="middle" fill="#b6c9d7" font-size="11">2026-03-23 close</text>
<text x="346.4" y="334" text-anchor="middle" fill="#b6c9d7" font-size="11">2026-03-24 close</text>
<text x="415.5" y="334" text-anchor="middle" fill="#b6c9d7" font-size="11">2026-03-25 close</text>
<text x="484.5" y="334" text-anchor="middle" fill="#b6c9d7" font-size="11">2026-03-26 close</text>
<text x="553.6" y="334" text-anchor="middle" fill="#b6c9d7" font-size="11">2026-03-27 close</text>
<text x="622.7" y="334" text-anchor="middle" fill="#b6c9d7" font-size="11">2026-03-28 close</text>
<text x="691.8" y="334" text-anchor="middle" fill="#b6c9d7" font-size="11">2026-03-29 close</text>
<text x="760.9" y="334" text-anchor="middle" fill="#b6c9d7" font-size="11">2026-03-30 close</text>
<text x="830.0" y="334" text-anchor="middle" fill="#b6c9d7" font-size="11">2026-03-31 close</text>
</svg>